<svg width="168" height="60" viewBox="0 0 168 60" fill="none" xmlns="http://www.w3.org/2000/svg">
<path fill-rule="evenodd" clip-rule="evenodd" d="M30 59C46.0163 59 59 46.0163 59 30C59 13.9837 46.0163 1 30 1C13.9837 1 1 13.9837 1 30C1 46.0163 13.9837 59 30 59ZM30 60C46.5685 60 60 46.5685 60 30C60 13.4315 46.5685 0 30 0C13.4315 0 0 13.4315 0 30C0 46.5685 13.4315 60 30 60Z" fill="#2D1D5A"/>
<path fill-rule="evenodd" clip-rule="evenodd" d="M20 39C24.9706 39 29 34.9706 29 30C29 25.0294 24.9706 21 20 21C15.0294 21 11 25.0294 11 30C11 34.9706 15.0294 39 20 39ZM20 40C25.5228 40 30 35.5228 30 30C30 24.4772 25.5228 20 20 20C14.4772 20 10 24.4772 10 30C10 35.5228 14.4772 40 20 40Z" fill="#1400FF"/>
<path d="M55 30C55 35.5228 50.5228 40 45 40C39.4772 40 35 35.5228 35 30C35 24.4772 39.4772 20 45 20C50.5228 20 55 24.4772 55 30Z" fill="#1400FF"/>
<path fill-rule="evenodd" clip-rule="evenodd" d="M45 39C49.9706 39 54 34.9706 54 30C54 25.0294 49.9706 21 45 21C40.0294 21 36 25.0294 36 30C36 34.9706 40.0294 39 45 39ZM45 40C50.5228 40 55 35.5228 55 30C55 24.4772 50.5228 20 45 20C39.4772 20 35 24.4772 35 30C35 35.5228 39.4772 40 45 40Z" fill="#1804FF"/>
<path d="M94.0547 33.7969C94.0547 34.7266 93.8203 35.6094 93.3516 36.4453C92.8828 37.2734 92.1523 37.9453 91.1602 38.4609C90.1758 38.9766 88.9023 39.2344 87.3398 39.2344C86.5586 39.2344 85.8711 39.1992 85.2773 39.1289C84.6914 39.0586 84.1445 38.9453 83.6367 38.7891C83.1289 38.625 82.6016 38.4141 82.0547 38.1562V34.0312C82.9844 34.5 83.9219 34.8594 84.8672 35.1094C85.8125 35.3516 86.668 35.4727 87.4336 35.4727C87.8945 35.4727 88.2695 35.418 88.5586 35.3086C88.8555 35.1992 89.0742 35.0508 89.2148 34.8633C89.3555 34.668 89.4258 34.4453 89.4258 34.1953C89.4258 33.8984 89.3203 33.6484 89.1094 33.4453C88.9062 33.2344 88.5781 33.0156 88.125 32.7891C87.6719 32.5625 87.0742 32.2812 86.332 31.9453C85.6992 31.6484 85.125 31.3438 84.6094 31.0312C84.1016 30.7188 83.6641 30.3633 83.2969 29.9648C82.9375 29.5586 82.6602 29.0859 82.4648 28.5469C82.2695 28.0078 82.1719 27.3711 82.1719 26.6367C82.1719 25.5352 82.4414 24.6133 82.9805 23.8711C83.5273 23.1211 84.2852 22.5586 85.2539 22.1836C86.2305 21.8086 87.3555 21.6211 88.6289 21.6211C89.7461 21.6211 90.75 21.7461 91.6406 21.9961C92.5391 22.2461 93.3438 22.5312 94.0547 22.8516L92.6367 26.4258C91.9023 26.0898 91.1797 25.8242 90.4688 25.6289C89.7578 25.4258 89.0977 25.3242 88.4883 25.3242C88.0898 25.3242 87.7617 25.375 87.5039 25.4766C87.2539 25.5703 87.0664 25.6992 86.9414 25.8633C86.8242 26.0273 86.7656 26.2148 86.7656 26.4258C86.7656 26.6914 86.8672 26.9297 87.0703 27.1406C87.2812 27.3516 87.6289 27.582 88.1133 27.832C88.6055 28.0742 89.2734 28.3906 90.1172 28.7812C90.9531 29.1562 91.6641 29.5625 92.25 30C92.8359 30.4297 93.2812 30.9492 93.5859 31.5586C93.8984 32.1602 94.0547 32.9062 94.0547 33.7969Z" fill="black"/>
<path d="M102.41 25.4883C103.699 25.4883 104.812 25.7148 105.75 26.168C106.688 26.6133 107.41 27.2852 107.918 28.1836C108.426 29.082 108.68 30.207 108.68 31.5586V33.5977H100.488C100.527 34.293 100.785 34.8633 101.262 35.3086C101.746 35.7539 102.457 35.9766 103.395 35.9766C104.223 35.9766 104.98 35.8945 105.668 35.7305C106.363 35.5664 107.078 35.3125 107.812 34.9688V38.2617C107.172 38.5977 106.473 38.8438 105.715 39C104.957 39.1562 104 39.2344 102.844 39.2344C101.508 39.2344 100.312 38.9961 99.2578 38.5195C98.2031 38.043 97.3711 37.3047 96.7617 36.3047C96.1602 35.3047 95.8594 34.0195 95.8594 32.4492C95.8594 30.8555 96.1328 29.5469 96.6797 28.5234C97.2266 27.4922 97.9922 26.7305 98.9766 26.2383C99.9609 25.7383 101.105 25.4883 102.41 25.4883ZM102.574 28.6055C102.035 28.6055 101.582 28.7773 101.215 29.1211C100.855 29.457 100.645 29.9883 100.582 30.7148H104.52C104.512 30.3242 104.434 29.9688 104.285 29.6484C104.137 29.3281 103.918 29.0742 103.629 28.8867C103.348 28.6992 102.996 28.6055 102.574 28.6055Z" fill="black"/>
<path d="M115.852 39H111.27V20.7656H115.852V39Z" fill="black"/>
<path d="M127.137 29.1562H124.312V39H119.73V29.1562H117.973V26.9062L119.824 25.7812V25.5586C119.824 24.4102 119.977 23.4766 120.281 22.7578C120.586 22.0312 121.07 21.4961 121.734 21.1523C122.398 20.8086 123.266 20.6367 124.336 20.6367C125.023 20.6367 125.645 20.6914 126.199 20.8008C126.762 20.9102 127.348 21.0664 127.957 21.2695L126.973 24.2344C126.746 24.1719 126.492 24.1172 126.211 24.0703C125.938 24.0234 125.641 24 125.32 24C124.969 24 124.711 24.1094 124.547 24.3281C124.391 24.5391 124.312 24.8867 124.312 25.3711V25.7227H127.137V29.1562Z" fill="black"/>
<path d="M133.523 20.7656V24.8906C133.523 25.3594 133.508 25.8086 133.477 26.2383C133.445 26.6602 133.406 27.0586 133.359 27.4336H133.523C133.867 26.8945 134.316 26.4375 134.871 26.0625C135.426 25.6797 136.152 25.4883 137.051 25.4883C138.434 25.4883 139.562 26.0742 140.438 27.2461C141.32 28.418 141.762 30.1133 141.762 32.332C141.762 33.8398 141.559 35.1094 141.152 36.1406C140.746 37.1641 140.176 37.9375 139.441 38.4609C138.715 38.9766 137.871 39.2344 136.91 39.2344C135.973 39.2344 135.258 39.0742 134.766 38.7539C134.281 38.4258 133.867 38.0742 133.523 37.6992H133.242L132.516 39H128.941V20.7656H133.523ZM135.375 29.0859C134.953 29.0859 134.605 29.1836 134.332 29.3789C134.059 29.5742 133.855 29.8789 133.723 30.293C133.59 30.6992 133.523 31.2188 133.523 31.8516V32.4961C133.523 33.5273 133.66 34.293 133.934 34.793C134.215 35.293 134.711 35.543 135.422 35.543C135.961 35.543 136.375 35.2656 136.664 34.7109C136.953 34.1562 137.098 33.3477 137.098 32.2852C137.098 31.2227 136.957 30.4258 136.676 29.8945C136.395 29.3555 135.961 29.0859 135.375 29.0859Z" fill="black"/>
<path d="M142.781 25.7227H147.609L149.859 33.3398C149.891 33.4492 149.922 33.5859 149.953 33.75C149.984 33.9062 150.012 34.0742 150.035 34.2539C150.059 34.4336 150.074 34.6094 150.082 34.7812H150.176C150.215 34.4609 150.258 34.1836 150.305 33.9492C150.359 33.707 150.41 33.5117 150.457 33.3633L152.766 25.7227H157.441L152.191 39.8438C151.785 40.9219 151.312 41.8242 150.773 42.5508C150.242 43.2852 149.582 43.8359 148.793 44.2031C148.012 44.5781 147.039 44.7656 145.875 44.7656C145.453 44.7656 145.09 44.7422 144.785 44.6953C144.488 44.6562 144.227 44.6133 144 44.5664V40.9688C144.172 41 144.383 41.0312 144.633 41.0625C144.883 41.0938 145.145 41.1094 145.418 41.1094C145.926 41.1094 146.336 41.0078 146.648 40.8047C146.969 40.6016 147.23 40.332 147.434 39.9961C147.637 39.668 147.812 39.3125 147.961 38.9297L148.008 38.8125L142.781 25.7227Z" fill="black"/>
<path d="M165.539 35.6133C165.953 35.6133 166.332 35.5703 166.676 35.4844C167.02 35.3984 167.379 35.2891 167.754 35.1562V38.4961C167.254 38.7148 166.723 38.8906 166.16 39.0234C165.605 39.1641 164.895 39.2344 164.027 39.2344C163.168 39.2344 162.41 39.1016 161.754 38.8359C161.098 38.5625 160.586 38.0938 160.219 37.4297C159.859 36.7578 159.68 35.8242 159.68 34.6289V29.1562H158.074V27.293L160.113 25.8516L161.297 23.0625H164.297V25.7227H167.555V29.1562H164.297V34.3242C164.297 34.7539 164.406 35.0781 164.625 35.2969C164.844 35.5078 165.148 35.6133 165.539 35.6133Z" fill="black"/>
</svg>
